<svg width="55" height="65" viewBox="0 0 55 65" fill="none" xmlns="http://www.w3.org/2000/svg">
<g clip-path="url(#clip0_65_178)">
<path d="M45.4685 27.4774L38.2563 32.7943L36.8256 33.8564L27.6535 40.6156L18.3768 33.8142L16.9331 32.752L9.74043 27.4774H0.307007V64.5686H9.77963V38.7569L15.2542 42.5287L16.9658 43.7056L25.3801 49.4992H29.9334L38.1583 43.8323L39.8634 42.6615L45.5339 38.7569V64.5686H55V27.4774H45.4685Z" fill="#212121"/>
</g>
<path d="M27.6354 27.4987L27.3397 28.0858L27.044 27.4987L15.8625 32.3846V65H17.5637V33.3937L27.3397 29.1202L37.1178 33.3937V65H38.8168V32.3846L27.6354 27.4987Z" fill="#24AC8B"/>
<path d="M26.4435 28.3844C25.9542 26.2768 23.0141 25.5185 20.4218 24.8497C19.5181 24.6164 18.6644 24.3947 17.9502 24.1245C15.0184 23.0182 11.6952 21.7641 9.82955 18.7544C8.61353 16.7926 8.61562 14.2495 9.83163 12.278C10.929 10.5028 12.7821 9.51319 14.9747 9.62401C18.9954 9.81066 22.2333 13.0459 24.8694 19.5126C25.5981 21.3014 26.2832 23.1232 26.9037 24.9255C27.012 25.2385 27.1785 25.5827 27.3493 25.9385C27.6991 26.6676 28.0593 27.4239 28.1197 28.153L26.4414 28.3824L26.4435 28.3844ZM14.6686 11.2047C12.7446 11.2047 11.7369 12.3752 11.3058 13.0732C10.3855 14.5605 10.3834 16.4795 11.3017 17.9591C12.8758 20.4984 15.7805 21.593 18.5894 22.6546C19.212 22.8898 20.0199 23.0979 20.8757 23.3195C22.2291 23.6676 23.7366 24.0584 25.0318 24.6805C24.4883 23.1445 23.9011 21.6008 23.2827 20.0784C20.9132 14.2631 18.1688 11.3622 14.8914 11.2086L14.6707 11.2028L14.6686 11.2047Z" fill="#24AC8B"/>
<path d="M28.5572 28.3839L26.8789 28.1544C26.9393 27.4234 27.3016 26.6671 27.6514 25.936C27.8201 25.5821 27.9866 25.24 28.0949 24.9269C28.7237 23.1071 29.4088 21.2853 30.1292 19.514C32.7653 13.0474 36.0032 9.81208 40.0239 9.62542C42.2061 9.52043 44.0717 10.5042 45.1691 12.2833C46.3851 14.2548 46.3851 16.794 45.1691 18.7558C43.2992 21.7694 39.9781 23.0215 37.0484 24.1259C36.3342 24.3961 35.4805 24.6158 34.5768 24.8492C31.9845 25.5199 29.0444 26.2782 28.553 28.3858L28.5572 28.3839ZM40.33 11.2042L40.1093 11.21C36.834 11.3617 34.0896 14.2645 31.72 20.0798C31.1058 21.5866 30.5186 23.1324 29.971 24.68C31.2661 24.0578 32.7736 23.667 34.1271 23.319C34.9829 23.0974 35.7908 22.8893 36.4134 22.6541C39.2202 21.5944 42.1228 20.4998 43.699 17.9586C44.6173 16.481 44.6173 14.562 43.6969 13.0746C43.268 12.3746 42.256 11.2042 40.33 11.2042Z" fill="#24AC8B"/>
<defs>
<clipPath id="clip0_65_178">
<rect width="55" height="64.5686" fill="white"/>
</clipPath>
</defs>
</svg>
